# xmcd
#
# Track frame offsets:
#	150
#	15782
#	30252
#	48261
#	64255
#	78940
#	94801
#	113090
#	125279
#	140136
#	154941
#	172222
#	186893
#	195350
#	215627
#	230850
#	246432
#	265136
#	279266
#	311173
#
# Disc length: 4293 seconds
#
# Revision: 1
# Processed by: cddbd v1.5.2PL0 Copyright (c) Steve Scherf et al.
# Submitted via: audiograbber 1.83.01
#
DISCID=1a10c314
DTITLE=Country Hotdisc - Country Hotdisc 133
DYEAR=2010
DGENRE=Country
TTITLE0=And Then You Sang  - Tokyo Rosenthal
TTITLE1=Another Lonely Night - Haley Oliver
TTITLE2=Whipping Post  - Susan Hickman
TTITLE3=Next Train  - Tabstha and Southern Fry´d
TTITLE4=Wine Lovers And Lights  - The River Gypsies
TTITLE5=Somebody Stole The Sun  - Ronnie Baker
TTITLE6=Dear Mr Jesus  - Jalon Watts
TTITLE7=Redwing  - Slim Whitman
TTITLE8=Gonna Build Me A Bar (in Back Of My Car)  - Tommy Young
TTITLE9=Waiting For You - George Mcanthony
TTITLE10=In Just One Night  - The Jockers Wild Band
TTITLE11=Sitting Pretty  - Wil D Wild West
TTITLE12=There´s Someone Who Loves You - Jim Reeves
TTITLE13=Time After Time - Haybelle Moyses Bluegrass Forum
TTITLE14=But 4 Now  - Jacked Up
TTITLE15=Western Woman  - Brianie
TTITLE16=Charlie Landsborough Interview Part 1  - Stuart Cameron
TTITLE17=I Will Love You All My Life  - Charlie Landsborough
TTITLE18=Charlie Landsborough Interview Part 2  - Stuart Cameron
TTITLE19=Australia In My Heart - Charlie Landsborough
EXTD=
EXTT0=
EXTT1=
EXTT2=
EXTT3=
EXTT4=
EXTT5=
EXTT6=
EXTT7=
EXTT8=
EXTT9=
EXTT10=
EXTT11=
EXTT12=
EXTT13=
EXTT14=
EXTT15=
EXTT16=
EXTT17=
EXTT18=
EXTT19=
PLAYORDER=
